<svg xmlns="http://www.w3.org/2000/svg" xmlns:xlink="http://www.w3.org/1999/xlink" width="409" zoomAndPan="magnify" viewBox="0 0 306.75 280.499991" height="374" preserveAspectRatio="xMidYMid meet" version="1.0"><defs><clipPath id="1c7c7a8b77"><path d="M 3 61.300781 L 167.332031 61.300781 L 167.332031 230.960938 L 3 230.960938 Z M 3 61.300781 " clip-rule="nonzero"/></clipPath><clipPath id="d143a1690f"><path d="M 3.25 216.9375 C 31.257812 234.792969 167.101562 241.796875 167.101562 192.78125 C 167.101562 170.140625 134.140625 160.363281 102.675781 146.726562 C 72.363281 133.589844 43.503906 116.738281 43.503906 88.449219 C 43.503906 71.527344 51.90625 61.839844 51.90625 61.839844 C 51.90625 61.839844 35.097656 74.441406 35.097656 94.746094 C 35.097656 116.875 50.832031 132.742188 70.800781 145.148438 L 70.800781 214.703125 L 84.027344 213.464844 L 84.027344 152.628906 C 116.429688 169.480469 152.984375 179.679688 152.984375 193.132812 C 152.984375 210.992188 84.976562 235.144531 3.242188 216.941406 " clip-rule="nonzero"/></clipPath><clipPath id="8c77e06705"><path d="M 0.0234375 0.808594 L 164.128906 0.808594 L 164.128906 169.960938 L 0.0234375 169.960938 Z M 0.0234375 0.808594 " clip-rule="nonzero"/></clipPath><clipPath id="e7daf7cb58"><path d="M 0.25 155.9375 C 28.257812 173.792969 164.101562 180.796875 164.101562 131.78125 C 164.101562 109.140625 131.140625 99.363281 99.675781 85.726562 C 69.363281 72.589844 40.503906 55.738281 40.503906 27.449219 C 40.503906 10.527344 48.90625 0.839844 48.90625 0.839844 C 48.90625 0.839844 32.097656 13.441406 32.097656 33.746094 C 32.097656 55.875 47.832031 71.742188 67.800781 84.148438 L 67.800781 153.703125 L 81.027344 152.464844 L 81.027344 91.628906 C 113.429688 108.480469 149.984375 118.679688 149.984375 132.132812 C 149.984375 149.992188 81.976562 174.144531 0.242188 155.941406 " clip-rule="nonzero"/></clipPath><clipPath id="ccf93c2ba6"><rect x="0" width="165" y="0" height="170"/></clipPath><clipPath id="ec29e6fcf6"><path d="M 63 28.484375 L 222.441406 28.484375 L 222.441406 277 L 63 277 Z M 63 28.484375 " clip-rule="nonzero"/></clipPath><clipPath id="b9a55391c2"><path d="M 77.425781 67.441406 C 77.425781 46.859375 97.078125 28.582031 97.078125 28.582031 C 97.078125 28.582031 66.617188 45.035156 66.617188 73.75 C 66.617188 139.921875 196.933594 152.351562 196.933594 189.636719 C 196.933594 218.695312 149.246094 249.503906 63.113281 252.660156 C 63.113281 252.660156 176.203125 261.761719 207.363281 203.644531 C 207.363281 203.644531 215.761719 260.011719 102.675781 276.113281 C 124.734375 280.78125 222.417969 265.148438 222.417969 205.738281 C 222.417969 133.148438 77.425781 133.96875 77.425781 67.441406 " clip-rule="nonzero"/></clipPath><clipPath id="257008d87c"><path d="M 0 0.507812 L 159.441406 0.507812 L 159.441406 249 L 0 249 Z M 0 0.507812 " clip-rule="nonzero"/></clipPath><clipPath id="0e757fbe08"><path d="M 14.425781 39.441406 C 14.425781 18.859375 34.078125 0.582031 34.078125 0.582031 C 34.078125 0.582031 3.617188 17.035156 3.617188 45.75 C 3.617188 111.921875 133.933594 124.351562 133.933594 161.636719 C 133.933594 190.695312 86.246094 221.503906 0.113281 224.660156 C 0.113281 224.660156 113.203125 233.761719 144.363281 175.644531 C 144.363281 175.644531 152.761719 232.011719 39.675781 248.113281 C 61.734375 252.78125 159.417969 237.148438 159.417969 177.738281 C 159.417969 105.148438 14.425781 105.96875 14.425781 39.441406 " clip-rule="nonzero"/></clipPath><clipPath id="ed602cea26"><rect x="0" width="160" y="0" height="249"/></clipPath><clipPath id="e77d9bf825"><path d="M 93.648438 3.097656 L 256 3.097656 L 256 235.917969 L 93.648438 235.917969 Z M 93.648438 3.097656 " clip-rule="nonzero"/></clipPath><clipPath id="f9663f73ee"><path d="M 203.550781 129.628906 L 203.550781 71.523438 C 198.335938 71.523438 190.324219 73.382812 190.324219 73.382812 L 190.324219 122.597656 C 167.117188 110.785156 146.09375 101.925781 146.09375 90.890625 C 146.09375 71.515625 205.261719 56.929688 255.914062 63.234375 C 255.914062 63.234375 244.128906 53.777344 206.660156 53.777344 C 169.195312 53.777344 129.640625 67.089844 131.042969 93 C 131.042969 93 118.609375 85.472656 118.609375 76.371094 C 118.609375 67.269531 146.96875 33.480469 236.421875 30.675781 C 236.421875 30.675781 139.261719 21.75 109.683594 66.042969 C 109.683594 66.042969 98.363281 14.222656 226.273438 5.121094 C 203.550781 -1.648438 93.929688 6.523438 93.929688 61.839844 C 93.929688 128.59375 235.375 124.160156 240.625 194.183594 C 240.742188 222.660156 222.421875 235.5 222.421875 235.5 C 222.421875 235.5 250.78125 222.546875 250.78125 189.285156 C 250.78125 161.25 227.910156 143.304688 203.550781 129.632812 " clip-rule="nonzero"/></clipPath><clipPath id="01966aca57"><path d="M 0.820312 0.0976562 L 163 0.0976562 L 163 232.5 L 0.820312 232.5 Z M 0.820312 0.0976562 " clip-rule="nonzero"/></clipPath><clipPath id="70417b9abe"><path d="M 110.550781 126.628906 L 110.550781 68.523438 C 105.335938 68.523438 97.324219 70.382812 97.324219 70.382812 L 97.324219 119.597656 C 74.117188 107.785156 53.09375 98.925781 53.09375 87.890625 C 53.09375 68.515625 112.261719 53.929688 162.914062 60.234375 C 162.914062 60.234375 151.128906 50.777344 113.660156 50.777344 C 76.195312 50.777344 36.640625 64.089844 38.042969 90 C 38.042969 90 25.609375 82.472656 25.609375 73.371094 C 25.609375 64.269531 53.96875 30.480469 143.421875 27.675781 C 143.421875 27.675781 46.261719 18.75 16.683594 63.042969 C 16.683594 63.042969 5.363281 11.222656 133.273438 2.121094 C 110.550781 -4.648438 0.929688 3.523438 0.929688 58.839844 C 0.929688 125.59375 142.375 121.160156 147.625 191.183594 C 147.742188 219.660156 129.421875 232.5 129.421875 232.5 C 129.421875 232.5 157.78125 219.546875 157.78125 186.285156 C 157.78125 158.25 134.910156 140.304688 110.550781 126.632812 " clip-rule="nonzero"/></clipPath><clipPath id="6373fbeef4"><rect x="0" width="163" y="0" height="233"/></clipPath><clipPath id="7c999bf37a"><path d="M 238.539062 47.058594 L 264.546875 47.058594 L 264.546875 73.683594 L 238.539062 73.683594 Z M 238.539062 47.058594 " clip-rule="nonzero"/></clipPath><clipPath id="dac74787db"><path d="M 264.371094 60.320312 C 264.371094 53.25 258.640625 47.527344 251.582031 47.527344 C 244.519531 47.527344 238.789062 53.257812 238.789062 60.320312 C 238.789062 67.382812 244.519531 73.109375 251.582031 73.109375 C 258.640625 73.109375 264.371094 67.382812 264.371094 60.320312 " clip-rule="nonzero"/></clipPath><clipPath id="3784b80663"><path d="M 0.761719 0.433594 L 26.398438 0.433594 L 26.398438 26.308594 L 0.761719 26.308594 Z M 0.761719 0.433594 " clip-rule="nonzero"/></clipPath><clipPath id="638b298ae0"><path d="M 26.371094 13.320312 C 26.371094 6.25 20.640625 0.527344 13.582031 0.527344 C 6.519531 0.527344 0.789062 6.257812 0.789062 13.320312 C 0.789062 20.382812 6.519531 26.109375 13.582031 26.109375 C 20.640625 26.109375 26.371094 20.382812 26.371094 13.320312 " clip-rule="nonzero"/></clipPath><clipPath id="73f129ee3d"><rect x="0" width="27" y="0" height="27"/></clipPath><clipPath id="01593d2e23"><path d="M 263.929688 35.292969 L 284 35.292969 L 284 85.449219 L 263.929688 85.449219 Z M 263.929688 35.292969 " clip-rule="nonzero"/></clipPath><clipPath id="52da391f47"><path d="M 264.152344 35.78125 C 272.183594 40.417969 277.042969 49.667969 277.042969 60.324219 C 277.042969 69.890625 272.289062 80.066406 264.378906 84.742188 C 261.710938 86.316406 283.871094 81.089844 283.871094 60.320312 C 283.871094 38.203125 261.480469 34.230469 264.160156 35.773438 " clip-rule="nonzero"/></clipPath><clipPath id="9a88ff2966"><path d="M 0.929688 0.292969 L 21 0.292969 L 21 50.449219 L 0.929688 50.449219 Z M 0.929688 0.292969 " clip-rule="nonzero"/></clipPath><clipPath id="0a38b3b585"><path d="M 1.152344 0.78125 C 9.183594 5.417969 14.042969 14.667969 14.042969 25.324219 C 14.042969 34.890625 9.289062 45.066406 1.378906 49.742188 C -1.289062 51.316406 20.871094 46.089844 20.871094 25.320312 C 20.871094 3.203125 -1.519531 -0.769531 1.160156 0.773438 " clip-rule="nonzero"/></clipPath><clipPath id="6eb1ab9a84"><rect x="0" width="21" y="0" height="51"/></clipPath><clipPath id="8df6f53175"><path d="M 278.789062 24.148438 L 302.9375 24.148438 L 302.9375 96.59375 L 278.789062 96.59375 Z M 278.789062 24.148438 " clip-rule="nonzero"/></clipPath><clipPath id="8f48f5a6dc"><path d="M 279.183594 24.609375 C 290.167969 33.652344 294.855469 44.839844 294.855469 60.363281 C 294.855469 74.292969 290.871094 85 279.5 95.933594 C 275.617188 98.226562 302.933594 90.617188 302.933594 60.355469 C 302.933594 28.140625 275.28125 22.355469 279.183594 24.609375 " clip-rule="nonzero"/></clipPath><clipPath id="ff1ebc57e7"><path d="M 0.789062 0.148438 L 24.9375 0.148438 L 24.9375 72.59375 L 0.789062 72.59375 Z M 0.789062 0.148438 " clip-rule="nonzero"/></clipPath><clipPath id="081acb91b7"><path d="M 1.183594 0.609375 C 12.167969 9.652344 16.855469 20.839844 16.855469 36.363281 C 16.855469 50.292969 12.871094 61 1.5 71.933594 C -2.382812 74.226562 24.933594 66.617188 24.933594 36.355469 C 24.933594 4.140625 -2.71875 -1.644531 1.183594 0.609375 " clip-rule="nonzero"/></clipPath><clipPath id="7b05a7ff98"><rect x="0" width="25" y="0" height="73"/></clipPath></defs><g clip-path="url(#1c7c7a8b77)"><g clip-path="url(#d143a1690f)"><g transform="matrix(1, 0, 0, 1, 3, 61)"><g clip-path="url(#ccf93c2ba6)"><g clip-path="url(#8c77e06705)"><g clip-path="url(#e7daf7cb58)"><rect x="-70.485" width="441.72" fill="#0c3b68" height="403.919988" y="-122.709998" fill-opacity="1"/></g></g></g></g></g></g><g clip-path="url(#ec29e6fcf6)"><g clip-path="url(#b9a55391c2)"><g transform="matrix(1, 0, 0, 1, 63, 28)"><g clip-path="url(#ed602cea26)"><g clip-path="url(#257008d87c)"><g clip-path="url(#0e757fbe08)"><rect x="-130.485" width="441.72" fill="#0c3b68" height="403.919988" y="-89.709998" fill-opacity="1"/></g></g></g></g></g></g><g clip-path="url(#e77d9bf825)"><g clip-path="url(#f9663f73ee)"><g transform="matrix(1, 0, 0, 1, 93, 3)"><g clip-path="url(#6373fbeef4)"><g clip-path="url(#01966aca57)"><g clip-path="url(#70417b9abe)"><rect x="-160.485" width="441.72" fill="#0c3b68" height="403.919988" y="-64.709998" fill-opacity="1"/></g></g></g></g></g></g><g clip-path="url(#7c999bf37a)"><g clip-path="url(#dac74787db)"><g transform="matrix(1, 0, 0, 1, 238, 47)"><g clip-path="url(#73f129ee3d)"><g clip-path="url(#3784b80663)"><g clip-path="url(#638b298ae0)"><rect x="-305.485" width="441.72" fill="#f5c133" height="403.919988" y="-108.709998" fill-opacity="1"/></g></g></g></g></g></g><g clip-path="url(#01593d2e23)"><g clip-path="url(#52da391f47)"><g transform="matrix(1, 0, 0, 1, 263, 35)"><g clip-path="url(#6eb1ab9a84)"><g clip-path="url(#9a88ff2966)"><g clip-path="url(#0a38b3b585)"><rect x="-330.485" width="441.72" fill="#f5c133" height="403.919988" y="-96.709998" fill-opacity="1"/></g></g></g></g></g></g><g clip-path="url(#8df6f53175)"><g clip-path="url(#8f48f5a6dc)"><g transform="matrix(1, 0, 0, 1, 278, 24)"><g clip-path="url(#7b05a7ff98)"><g clip-path="url(#ff1ebc57e7)"><g clip-path="url(#081acb91b7)"><rect x="-345.485" width="441.72" fill="#f5c133" height="403.919988" y="-85.709998" fill-opacity="1"/></g></g></g></g></g></g></svg>